<svg xmlns="http://www.w3.org/2000/svg" version="1.1" xmlns:xlink="http://www.w3.org/1999/xlink" xmlns:svgjs="http://svgjs.dev/svgjs" width="128" height="128" viewBox="0 0 128 128"><g transform="matrix(0.8046875,0,0,0.8046875,12.764419404937676,25.554297422895708)"><svg viewBox="0 0 95 71" data-background-color="#151515" preserveAspectRatio="xMidYMid meet" height="95" width="128" xmlns="http://www.w3.org/2000/svg" xmlns:xlink="http://www.w3.org/1999/xlink"><g id="tight-bounds" transform="matrix(1,0,0,1,-0.24388197542795353,0.24264760455965018)"><svg viewBox="0 0 95.481 70.50442929184408" height="70.50442929184408" width="95.481"><g><svg viewBox="0 0 95.481 70.50442929184408" height="70.50442929184408" width="95.481"><g><svg viewBox="0 0 95.481 70.50442929184408" height="70.50442929184408" width="95.481"><g id="textblocktransform"><svg viewBox="0 0 95.481 70.50442929184408" height="70.50442929184408" width="95.481" id="textblock"><g><svg viewBox="0 0 95.481 70.50442929184408" height="70.50442929184408" width="95.481"><g><svg viewBox="0 0 95.481 70.50442929184408" height="70.50442929184408" width="95.481"><g><svg xmlns="http://www.w3.org/2000/svg" xml:space="preserve" viewBox="5.000485644952788 16.770955130149403 90.00025814729628 66.45737724566945" x="0" y="0" height="70.50442929184408" width="95.481" class="icon-icon-0" data-fill-palette-color="accent" id="icon-0"><path d="M94.706 32.778a1.11 1.11 0 0 0-1.189-1.021s-0.795 0.061-1.333 0.1-0.928-1.103-0.928-1.103l-0.02 0.002a16.4 16.4 0 0 0-2.002-3.958l0.013-0.016s-0.689-0.996-0.337-1.404l0.873-1.016a1.106 1.106 0 0 0-0.118-1.561l-2.951-2.538a1.106 1.106 0 0 0-1.559 0.117s-0.522 0.605-0.873 1.015c-0.352 0.408-1.439-0.123-1.439-0.123l-0.014 0.016a16.5 16.5 0 0 0-4.213-1.387l-0.002-0.019s-1.19-0.215-1.23-0.751l-0.101-1.338a1.11 1.11 0 0 0-1.188-1.019l-3.883 0.291a1.11 1.11 0 0 0-1.021 1.189s0.063 0.793 0.102 1.331c0.041 0.539-1.104 0.932-1.104 0.932l0.002 0.018a16.3 16.3 0 0 0-3.956 2.002l-0.017-0.015s-0.994 0.688-1.404 0.34L63.8 21.99a1.106 1.106 0 0 0-1.561 0.118l-2.538 2.951a1.11 1.11 0 0 0 0.117 1.561l1.013 0.873c0.41 0.351-0.122 1.438-0.122 1.438l0.014 0.013a16.5 16.5 0 0 0-1.385 4.215h-0.019c0.003 0-0.216 1.189-0.753 1.231l-1.333 0.1a1.105 1.105 0 0 0-1.021 1.187l0.292 3.882c0.046 0.61 0.579 1.067 1.187 1.021 0 0 0.798-0.061 1.334-0.1 0.538-0.042 0.93 1.104 0.93 1.104h0.018a16.5 16.5 0 0 0 2.002 3.954l-0.013 0.016s0.689 0.994 0.337 1.404l-0.873 1.012a1.113 1.113 0 0 0 0.119 1.564l2.952 2.538a1.107 1.107 0 0 0 1.561-0.12s0.521-0.604 0.87-1.013c0.353-0.409 1.439 0.123 1.439 0.123l0.014-0.017a16.4 16.4 0 0 0 4.213 1.388v0.02s1.192 0.215 1.231 0.754l0.102 1.335a1.11 1.11 0 0 0 1.188 1.019l3.879-0.291a1.113 1.113 0 0 0 1.023-1.189l-0.102-1.333c-0.041-0.536 1.104-0.928 1.104-0.928l-0.002-0.021a16.4 16.4 0 0 0 3.956-2l0.018 0.013s0.996-0.689 1.403-0.337l1.015 0.873a1.107 1.107 0 0 0 1.56-0.118l2.541-2.951a1.11 1.11 0 0 0-0.117-1.561l-1.017-0.873c-0.408-0.352 0.125-1.437 0.125-1.437l-0.016-0.014a16.6 16.6 0 0 0 1.387-4.216h0.016s0.218-1.189 0.756-1.23l1.333-0.102a1.11 1.11 0 0 0 1.021-1.184z m-9.894-5.435c-0.189 4.393-0.378 8.784-0.604 13.176-0.595-0.588-1.649-1.64-3.677-3.664l-8.36 8.36-5.787-5.784 8.361-8.362a536 536 0 0 1-3.313-3.33c4.308-0.244 8.622-0.396 12.93-0.607 0.187 0.007 0.536-0.089 0.452 0.212zM32.496 52.714c0.357 0.497 1.047 0.61 1.543 0.253l3.166-2.268c0.497-0.355 0.61-1.049 0.257-1.543 0 0-0.469-0.65-0.781-1.088s0.458-1.367 0.458-1.367l-0.013-0.017a16.4 16.4 0 0 0 2.344-3.769l0.016 0.003s0.494-1.104 1.025-1.017l1.321 0.217a1.11 1.11 0 0 0 1.271-0.911l0.633-3.843a1.11 1.11 0 0 0-0.914-1.271l-1.319-0.218c-0.531-0.089-0.642-1.291-0.642-1.291l-0.019-0.003a16.4 16.4 0 0 0-1.01-4.318l0.017-0.013s-0.434-1.131 0.003-1.444l1.088-0.779c0.496-0.355 0.61-1.048 0.253-1.545l-2.268-3.162a1.106 1.106 0 0 0-1.544-0.255s-0.647 0.465-1.088 0.779c-0.436 0.313-1.369-0.458-1.369-0.458l-0.016 0.011a16.4 16.4 0 0 0-3.767-2.342l0.003-0.02s-1.107-0.49-1.019-1.021l0.219-1.322a1.11 1.11 0 0 0-0.914-1.271l-3.84-0.635a1.113 1.113 0 0 0-1.274 0.914s-0.127 0.788-0.215 1.319c-0.089 0.532-1.294 0.644-1.294 0.644l-0.003 0.018a16.4 16.4 0 0 0-4.317 1.01l-0.013-0.018s-1.129 0.436-1.442-0.001l-0.78-1.088a1.107 1.107 0 0 0-1.544-0.255l-3.163 2.27a1.11 1.11 0 0 0-0.256 1.543s0.469 0.648 0.778 1.088c0.316 0.438-0.459 1.37-0.459 1.37l0.013 0.016a16.5 16.5 0 0 0-2.344 3.767l-0.017-0.003c0.003 0-0.487 1.104-1.021 1.019l-1.32-0.219c-0.604-0.1-1.173 0.31-1.271 0.912l-0.632 3.842c-0.102 0.604 0.31 1.173 0.911 1.271 0 0 0.79 0.129 1.321 0.218 0.531 0.087 0.643 1.294 0.643 1.294l0.016 0.003a16.4 16.4 0 0 0 1.012 4.315l-0.016 0.011s0.434 1.131-0.007 1.445c-0.436 0.316-1.084 0.779-1.084 0.779a1.113 1.113 0 0 0-0.257 1.547l2.271 3.162c0.354 0.497 1.047 0.61 1.543 0.253l1.085-0.777c0.439-0.315 1.369 0.458 1.369 0.458l0.02-0.013a16.3 16.3 0 0 0 3.764 2.344l-0.004 0.02s1.107 0.489 1.019 1.022c-0.085 0.533-0.215 1.32-0.215 1.32-0.102 0.602 0.31 1.171 0.911 1.271l3.839 0.633a1.11 1.11 0 0 0 1.274-0.912l0.219-1.32c0.085-0.532 1.29-0.643 1.29-0.643l0.003-0.019a16.4 16.4 0 0 0 4.317-1.011l0.013 0.018c0.003 0 1.133-0.436 1.445 0.003zM20.025 44.75c0.589-0.593 1.64-1.647 3.664-3.675l-8.36-8.362 5.784-5.784 8.362 8.36a495 495 0 0 1 3.33-3.312c0.244 4.308 0.396 8.621 0.607 12.929-0.006 0.187 0.089 0.534-0.212 0.452v-0.002c-4.391-0.191-8.783-0.378-13.175-0.606" fill="#e384ff" data-fill-palette-color="accent"></path><path d="M68.13 67.781l-1.254-0.462c-0.506-0.187-0.388-1.389-0.388-1.389l-0.019-0.006c0.139-1.462 0.08-2.951-0.184-4.432l0.022-0.009s-0.216-1.192 0.273-1.417c0.488-0.228 1.216-0.563 1.216-0.563 0.554-0.256 0.794-0.914 0.538-1.469L66.7 54.503a1.107 1.107 0 0 0-1.469-0.541l-1.215 0.563c-0.487 0.225-1.259-0.709-1.259-0.709l-0.018 0.007a16.6 16.6 0 0 0-3.259-3.008l0.006-0.018s-0.996-0.691-0.81-1.193l0.462-1.259a1.107 1.107 0 0 0-0.658-1.421l-3.652-1.344a1.114 1.114 0 0 0-1.424 0.658s-0.271 0.749-0.46 1.255c-0.185 0.507-1.39 0.39-1.39 0.39l-0.006 0.018a16.3 16.3 0 0 0-4.43 0.182l-0.01-0.02s-1.19 0.216-1.418-0.273l-0.561-1.214a1.107 1.107 0 0 0-1.469-0.541l-3.534 1.637c-0.554 0.254-0.794 0.91-0.541 1.467 0 0 0.339 0.725 0.56 1.215 0.229 0.488-0.705 1.259-0.705 1.259l0.007 0.016a16.6 16.6 0 0 0-3.008 3.261l-0.018-0.006c0.003 0-0.688 0.993-1.194 0.81-0.506-0.188-1.255-0.462-1.255-0.462a1.105 1.105 0 0 0-1.421 0.656l-1.344 3.654a1.107 1.107 0 0 0 0.658 1.42l1.255 0.462c0.507 0.184 0.39 1.392 0.39 1.392l0.016 0.007a16.3 16.3 0 0 0 0.184 4.428l-0.02 0.009s0.216 1.191-0.276 1.417c-0.488 0.228-1.213 0.56-1.213 0.56-0.554 0.26-0.797 0.918-0.541 1.471l1.636 3.533c0.256 0.557 0.914 0.797 1.471 0.541l1.211-0.562c0.49-0.227 1.259 0.707 1.259 0.707l0.019-0.01a16.5 16.5 0 0 0 3.258 3.011l-0.006 0.016s0.996 0.691 0.81 1.199l-0.462 1.255a1.11 1.11 0 0 0 0.657 1.421l3.653 1.341a1.11 1.11 0 0 0 1.423-0.655l0.461-1.259c0.185-0.504 1.39-0.386 1.39-0.386l0.006-0.019c1.463 0.139 2.951 0.08 4.432-0.184l0.009 0.022s1.191-0.216 1.417 0.273l0.562 1.213c0.258 0.557 0.913 0.797 1.47 0.541l3.532-1.634a1.11 1.11 0 0 0 0.542-1.469l-0.564-1.215c-0.225-0.488 0.709-1.256 0.709-1.256l-0.01-0.019a16.4 16.4 0 0 0 3.011-3.261l0.015 0.006s0.692-0.993 1.197-0.808l1.255 0.46a1.103 1.103 0 0 0 1.42-0.654l1.345-3.656a1.105 1.105 0 0 0-0.658-1.419m-7.395-3.264c-3.241 2.972-6.48 5.944-9.744 8.89-0.005-0.837-0.006-2.326-0.01-5.19H39.158v-8.182l11.823-0.002c0.002-2.865 0.004-3.863 0.014-4.696 3.216 2.873 6.375 5.816 9.571 8.712 0.127 0.136 0.442 0.316 0.169 0.468" fill="#e384ff" data-fill-palette-color="accent"></path></svg></g></svg></g></svg></g></svg></g></svg></g></svg></g><defs></defs></svg><rect width="95.481" height="70.50442929184408" fill="none" stroke="none" visibility="hidden"></rect></g></svg></g></svg>